<svg width="16" height="14" viewBox="0 0 16 14" fill="none" xmlns="http://www.w3.org/2000/svg">
<path d="M0 7.43082C0 7.06263 0.2736 6.75835 0.628578 6.71019L0.727264 6.70355L15.2725 6.70355C15.6742 6.70355 15.9998 7.02916 15.9998 7.43082C15.9998 7.799 15.7262 8.10329 15.3712 8.15144L15.2725 8.15808L0.727264 8.15808C0.325607 8.15808 0 7.83247 0 7.43082Z" fill="white"/>
<path d="M8.89298 2.10436C8.60836 1.82096 8.60737 1.36048 8.89077 1.07585C9.14841 0.817104 9.55239 0.792763 9.83755 1.0034L9.91927 1.07364L15.7859 6.91502C16.0454 7.17343 16.069 7.57887 15.8567 7.86403L15.7859 7.9457L9.91931 13.7881C9.63471 14.0715 9.17424 14.0705 8.89081 13.7859C8.63315 13.5272 8.61052 13.1231 8.82235 12.8388L8.89294 12.7574L14.2418 7.43009L8.89298 2.10436Z" fill="white"/>
</svg>
