<svg width="11" height="10" viewBox="0 0 11 10" fill="none" xmlns="http://www.w3.org/2000/svg">
<path d="M0 5.48365C0 5.23052 0.1881 5.02133 0.432148 4.98822L0.499994 4.98365L10.4999 4.98365C10.776 4.98365 10.9999 5.20751 10.9999 5.48365C10.9999 5.73678 10.8118 5.94597 10.5677 5.97908L10.4999 5.98364L0.499994 5.98364C0.223855 5.98364 0 5.75979 0 5.48365Z" fill="black"/>
<path d="M6.11394 1.82174C5.91826 1.62691 5.91758 1.31033 6.11242 1.11465C6.28955 0.936757 6.56728 0.920022 6.76333 1.06484L6.81952 1.11313L10.8528 5.12908C11.0312 5.30673 11.0475 5.58547 10.9015 5.78152L10.8528 5.83767L6.81955 9.85429C6.62388 10.0491 6.3073 10.0485 6.11245 9.85282C5.93531 9.67495 5.91975 9.39714 6.06539 9.2017L6.11391 9.14573L9.79122 5.48319L6.11394 1.82174Z" fill="black"/>
</svg>
