<svg width="15" height="15" viewBox="0 0 15 15" fill="none" xmlns="http://www.w3.org/2000/svg">
<path d="M3.19343 11.8065C3.01444 11.6275 2.99953 11.3466 3.14869 11.1506L3.19343 11.0994L10.2644 4.0284C10.4597 3.83314 10.7763 3.83314 10.9715 4.0284C11.1505 4.20739 11.1654 4.48832 11.0163 4.6843L10.9715 4.7355L3.90053 11.8065C3.70527 12.0017 3.38869 12.0017 3.19343 11.8065Z" fill="black"/>
<path d="M4.92726 4.89389C4.65112 4.89449 4.42679 4.67112 4.42619 4.39498C4.42565 4.14394 4.61021 3.93572 4.85124 3.89949L4.92511 3.89391L10.6168 3.88165C10.8686 3.88111 11.0771 4.06673 11.1126 4.30857L11.1178 4.38268L11.1061 10.0748C11.1055 10.351 10.8812 10.5744 10.605 10.5738C10.354 10.5733 10.1466 10.3878 10.1113 10.1466L10.1061 10.0728L10.1165 4.88269L4.92726 4.89389Z" fill="black"/>
</svg>
