<svg width="190" height="38" viewBox="0 0 190 38" fill="none" xmlns="http://www.w3.org/2000/svg">
<path d="M6.896 11.192C5.66933 11.192 4.59733 10.9733 3.68 10.536C2.77333 10.0987 2.06933 9.48 1.568 8.68C1.07733 7.88 0.832 6.92533 0.832 5.816C0.832 4.70667 1.07733 3.752 1.568 2.952C2.06933 2.14133 2.77333 1.52267 3.68 1.096C4.59733 0.658666 5.66933 0.44 6.896 0.44C8.144 0.44 9.216 0.658666 10.112 1.096C11.0187 1.52267 11.7227 2.14133 12.224 2.952C12.7253 3.752 12.976 4.70667 12.976 5.816C12.976 6.92533 12.7253 7.88 12.224 8.68C11.7227 9.48 11.0187 10.0987 10.112 10.536C9.216 10.9733 8.144 11.192 6.896 11.192ZM6.896 9.56C7.70667 9.56 8.42133 9.42667 9.04 9.16C9.66933 8.88267 10.16 8.46667 10.512 7.912C10.8747 7.35733 11.056 6.65867 11.056 5.816C11.056 4.984 10.8747 4.29067 10.512 3.736C10.16 3.18133 9.66933 2.76533 9.04 2.488C8.42133 2.21067 7.70667 2.072 6.896 2.072C6.096 2.072 5.376 2.21067 4.736 2.488C4.10667 2.76533 3.61067 3.18133 3.248 3.736C2.88533 4.29067 2.704 4.984 2.704 5.816C2.704 6.65867 2.88533 7.35733 3.248 7.912C3.61067 8.46667 4.10667 8.88267 4.736 9.16C5.376 9.42667 6.096 9.56 6.896 9.56ZM17.8744 11L13.5544 0.632H15.5864L19.2984 9.896H18.6744L22.3864 0.632H24.3864L20.0984 11H17.8744ZM27.7911 6.6V9.416H35.1511V11H25.9511V0.632H35.1351V2.216H27.7911V5.08H33.8071V6.6H27.7911ZM37.3574 11V0.632H43.5654C44.344 0.632 45.016 0.744 45.5814 0.967999C46.1467 1.18133 46.584 1.51733 46.8934 1.976C47.2027 2.424 47.3574 3 47.3574 3.704C47.3574 4.184 47.2774 4.59467 47.1174 4.936C46.9574 5.26667 46.7334 5.53867 46.4454 5.752C46.1574 5.96533 45.8214 6.13067 45.4374 6.248C45.064 6.35467 44.6587 6.424 44.2214 6.456L44.0614 6.344C44.744 6.36533 45.3147 6.43467 45.7734 6.552C46.232 6.65867 46.5787 6.86133 46.8134 7.16C47.048 7.45867 47.1654 7.90133 47.1654 8.488V11H45.3094V8.584C45.3094 8.17867 45.24 7.864 45.1014 7.64C44.9627 7.416 44.7174 7.26133 44.3654 7.176C44.0134 7.08 43.5174 7.032 42.8774 7.032H39.1974V11H37.3574ZM39.1974 5.528H43.5654C44.2054 5.528 44.6907 5.37333 45.0214 5.064C45.352 4.744 45.5174 4.32267 45.5174 3.8C45.5174 3.29867 45.352 2.91467 45.0214 2.648C44.6907 2.38133 44.2054 2.248 43.5654 2.248H39.1974V5.528ZM52.4469 4.616V3.032H56.3829V11H54.5749V4.616H52.4469ZM62.9771 5.96V5.08L69.6331 11H66.9931L61.0411 5.56L66.3211 0.632H68.9131L62.9771 5.96ZM59.2011 0.632H61.0411V11H59.2011V0.632ZM70.8 5.976H77.632V7.368H70.8V5.976ZM74.976 3.704V9.656H73.456V3.704H74.976ZM83.3886 11V0.632H88.7326C90.0126 0.632 90.994 0.872 91.6766 1.352C92.3593 1.82133 92.7006 2.504 92.7006 3.4C92.7006 3.976 92.5673 4.43467 92.3006 4.776C92.034 5.10667 91.6606 5.35733 91.1806 5.528C90.7006 5.688 90.13 5.78933 89.4686 5.832L89.5326 5.736C90.0126 5.74667 90.466 5.78933 90.8926 5.864C91.3193 5.928 91.6926 6.04533 92.0126 6.216C92.3433 6.38667 92.5993 6.62667 92.7806 6.936C92.9726 7.23467 93.0686 7.624 93.0686 8.104C93.0686 8.744 92.9086 9.272 92.5886 9.688C92.2686 10.104 91.8206 10.424 91.2446 10.648C90.6793 10.8613 90.0233 10.9787 89.2766 11H83.3886ZM85.2286 9.432H89.0206C89.714 9.432 90.2473 9.31467 90.6206 9.08C91.0046 8.83467 91.1966 8.456 91.1966 7.944C91.1966 7.54933 91.0793 7.26133 90.8446 7.08C90.6206 6.89867 90.322 6.78133 89.9486 6.728C89.5753 6.67467 89.186 6.648 88.7806 6.648H85.2286V9.432ZM85.2286 5.112H88.6206C89.314 5.112 89.8473 4.99467 90.2206 4.76C90.6046 4.51467 90.7966 4.136 90.7966 3.624C90.7966 3.112 90.6046 2.74933 90.2206 2.536C89.8473 2.312 89.3566 2.2 88.7486 2.2H85.2286V5.112ZM103.75 6.616V0.632H105.59V6.76C105.59 7.41067 105.5 7.98667 105.318 8.488C105.148 8.97867 104.897 9.39467 104.566 9.736C104.246 10.0773 103.862 10.36 103.414 10.584C102.977 10.7973 102.497 10.952 101.974 11.048C101.452 11.144 100.897 11.192 100.31 11.192C99.713 11.192 99.1424 11.144 98.5984 11.048C98.065 10.952 97.5744 10.7973 97.1264 10.584C96.689 10.36 96.3104 10.0773 95.9904 9.736C95.6704 9.39467 95.4197 8.97867 95.2384 8.488C95.0677 7.98667 94.9824 7.41067 94.9824 6.76V0.632H96.8224V6.616C96.8224 7.42667 96.977 8.04533 97.2864 8.472C97.5957 8.888 98.0117 9.176 98.5344 9.336C99.057 9.48533 99.649 9.56 100.31 9.56C100.95 9.56 101.526 9.48533 102.038 9.336C102.561 9.176 102.977 8.888 103.286 8.472C103.596 8.04533 103.75 7.42667 103.75 6.616ZM107.404 7.544H109.228C109.26 7.93867 109.414 8.296 109.692 8.616C109.969 8.92533 110.332 9.17067 110.78 9.352C111.238 9.52267 111.761 9.608 112.348 9.608C112.87 9.608 113.302 9.544 113.644 9.416C113.985 9.288 114.241 9.112 114.412 8.888C114.582 8.664 114.668 8.392 114.668 8.072C114.668 7.76267 114.566 7.52267 114.364 7.352C114.172 7.18133 113.868 7.03733 113.452 6.92C113.036 6.80267 112.508 6.68533 111.868 6.568C111.334 6.46133 110.822 6.328 110.332 6.168C109.841 6.008 109.398 5.80533 109.004 5.56C108.62 5.31467 108.316 5.016 108.092 4.664C107.868 4.312 107.756 3.89067 107.756 3.4C107.756 2.83467 107.91 2.328 108.22 1.88C108.54 1.432 109.009 1.08 109.628 0.823999C110.257 0.568 111.025 0.44 111.932 0.44C113.297 0.44 114.337 0.754666 115.052 1.384C115.777 2.00267 116.129 2.85067 116.108 3.928H114.348C114.305 3.256 114.054 2.776 113.596 2.488C113.137 2.18933 112.556 2.04 111.852 2.04C111.212 2.04 110.678 2.152 110.252 2.376C109.825 2.58933 109.612 2.94667 109.612 3.448C109.612 3.65067 109.66 3.832 109.756 3.992C109.862 4.14133 110.033 4.28 110.268 4.408C110.513 4.52533 110.838 4.64267 111.244 4.76C111.66 4.86667 112.172 4.97867 112.78 5.096C113.292 5.192 113.772 5.31467 114.22 5.464C114.678 5.60267 115.073 5.78933 115.404 6.024C115.745 6.248 116.012 6.536 116.204 6.888C116.396 7.24 116.492 7.672 116.492 8.184C116.492 8.77067 116.342 9.29333 116.044 9.752C115.745 10.2 115.286 10.5573 114.668 10.824C114.049 11.08 113.249 11.208 112.268 11.208C111.521 11.208 110.87 11.1227 110.316 10.952C109.772 10.7707 109.302 10.5413 108.908 10.264C108.524 9.976 108.214 9.66667 107.98 9.336C107.745 9.00533 107.58 8.68533 107.484 8.376C107.398 8.056 107.372 7.77867 107.404 7.544ZM118.677 0.632H120.533V11H118.677V0.632ZM132.991 9.08L132.415 9.304V0.632H134.271V11H132.415L124.591 2.6L125.151 2.376V11H123.311V0.632H125.151L132.991 9.08ZM138.604 6.6V9.416H145.964V11H136.764V0.632H145.948V2.216H138.604V5.08H144.62V6.6H138.604ZM147.482 7.544H149.306C149.338 7.93867 149.493 8.296 149.77 8.616C150.047 8.92533 150.41 9.17067 150.858 9.352C151.317 9.52267 151.839 9.608 152.426 9.608C152.949 9.608 153.381 9.544 153.722 9.416C154.063 9.288 154.319 9.112 154.49 8.888C154.661 8.664 154.746 8.392 154.746 8.072C154.746 7.76267 154.645 7.52267 154.442 7.352C154.25 7.18133 153.946 7.03733 153.53 6.92C153.114 6.80267 152.586 6.68533 151.946 6.568C151.413 6.46133 150.901 6.328 150.41 6.168C149.919 6.008 149.477 5.80533 149.082 5.56C148.698 5.31467 148.394 5.016 148.17 4.664C147.946 4.312 147.834 3.89067 147.834 3.4C147.834 2.83467 147.989 2.328 148.298 1.88C148.618 1.432 149.087 1.08 149.706 0.823999C150.335 0.568 151.103 0.44 152.01 0.44C153.375 0.44 154.415 0.754666 155.13 1.384C155.855 2.00267 156.207 2.85067 156.186 3.928H154.426C154.383 3.256 154.133 2.776 153.674 2.488C153.215 2.18933 152.634 2.04 151.93 2.04C151.29 2.04 150.757 2.152 150.33 2.376C149.903 2.58933 149.69 2.94667 149.69 3.448C149.69 3.65067 149.738 3.832 149.834 3.992C149.941 4.14133 150.111 4.28 150.346 4.408C150.591 4.52533 150.917 4.64267 151.322 4.76C151.738 4.86667 152.25 4.97867 152.858 5.096C153.37 5.192 153.85 5.31467 154.298 5.464C154.757 5.60267 155.151 5.78933 155.482 6.024C155.823 6.248 156.09 6.536 156.282 6.888C156.474 7.24 156.57 7.672 156.57 8.184C156.57 8.77067 156.421 9.29333 156.122 9.752C155.823 10.2 155.365 10.5573 154.746 10.824C154.127 11.08 153.327 11.208 152.346 11.208C151.599 11.208 150.949 11.1227 150.394 10.952C149.85 10.7707 149.381 10.5413 148.986 10.264C148.602 9.976 148.293 9.66667 148.058 9.336C147.823 9.00533 147.658 8.68533 147.562 8.376C147.477 8.056 147.45 7.77867 147.482 7.544ZM157.763 7.544H159.587C159.619 7.93867 159.774 8.296 160.051 8.616C160.328 8.92533 160.691 9.17067 161.139 9.352C161.598 9.52267 162.12 9.608 162.707 9.608C163.23 9.608 163.662 9.544 164.003 9.416C164.344 9.288 164.6 9.112 164.771 8.888C164.942 8.664 165.027 8.392 165.027 8.072C165.027 7.76267 164.926 7.52267 164.723 7.352C164.531 7.18133 164.227 7.03733 163.811 6.92C163.395 6.80267 162.867 6.68533 162.227 6.568C161.694 6.46133 161.182 6.328 160.691 6.168C160.2 6.008 159.758 5.80533 159.363 5.56C158.979 5.31467 158.675 5.016 158.451 4.664C158.227 4.312 158.115 3.89067 158.115 3.4C158.115 2.83467 158.27 2.328 158.579 1.88C158.899 1.432 159.368 1.08 159.987 0.823999C160.616 0.568 161.384 0.44 162.291 0.44C163.656 0.44 164.696 0.754666 165.411 1.384C166.136 2.00267 166.488 2.85067 166.467 3.928H164.707C164.664 3.256 164.414 2.776 163.955 2.488C163.496 2.18933 162.915 2.04 162.211 2.04C161.571 2.04 161.038 2.152 160.611 2.376C160.184 2.58933 159.971 2.94667 159.971 3.448C159.971 3.65067 160.019 3.832 160.115 3.992C160.222 4.14133 160.392 4.28 160.627 4.408C160.872 4.52533 161.198 4.64267 161.603 4.76C162.019 4.86667 162.531 4.97867 163.139 5.096C163.651 5.192 164.131 5.31467 164.579 5.464C165.038 5.60267 165.432 5.78933 165.763 6.024C166.104 6.248 166.371 6.536 166.563 6.888C166.755 7.24 166.851 7.672 166.851 8.184C166.851 8.77067 166.702 9.29333 166.403 9.752C166.104 10.2 165.646 10.5573 165.027 10.824C164.408 11.08 163.608 11.208 162.627 11.208C161.88 11.208 161.23 11.1227 160.675 10.952C160.131 10.7707 159.662 10.5413 159.267 10.264C158.883 9.976 158.574 9.66667 158.339 9.336C158.104 9.00533 157.939 8.68533 157.843 8.376C157.758 8.056 157.731 7.77867 157.763 7.544ZM6.688 37.192C5.792 37.192 4.98667 37.0747 4.272 36.84C3.55733 36.6053 2.93867 36.264 2.416 35.816C1.904 35.3573 1.50933 34.8027 1.232 34.152C0.965333 33.4907 0.832 32.7387 0.832 31.896C0.832 31.0533 0.976 30.296 1.264 29.624C1.56267 28.952 1.97867 28.3813 2.512 27.912C3.04533 27.432 3.68 27.0693 4.416 26.824C5.16267 26.568 5.98933 26.44 6.896 26.44C7.93067 26.44 8.832 26.6 9.6 26.92C10.368 27.24 10.976 27.688 11.424 28.264C11.8827 28.8293 12.144 29.5067 12.208 30.296H10.48C10.3413 29.8373 10.1173 29.4427 9.808 29.112C9.49867 28.7813 9.09867 28.5253 8.608 28.344C8.128 28.1627 7.55733 28.072 6.896 28.072C6.032 28.072 5.28533 28.232 4.656 28.552C4.03733 28.872 3.55733 29.32 3.216 29.896C2.88533 30.472 2.72 31.1387 2.72 31.896C2.72 32.6427 2.864 33.2933 3.152 33.848C3.45067 34.392 3.89867 34.8133 4.496 35.112C5.09333 35.4107 5.84 35.56 6.736 35.56C7.42933 35.56 8.03733 35.4587 8.56 35.256C9.08267 35.0533 9.51467 34.7707 9.856 34.408C10.208 34.0347 10.4533 33.6027 10.592 33.112L11.408 32.904C11.2587 34.28 10.768 35.3413 9.936 36.088C9.104 36.824 8.02133 37.192 6.688 37.192ZM10.96 37C10.96 36.6587 10.976 36.2747 11.008 35.848C11.04 35.4107 11.0827 34.968 11.136 34.52C11.1893 34.072 11.2373 33.6613 11.28 33.288H6.96V31.976H12.608V37H10.96ZM14.8418 37V26.632H21.0498C21.8284 26.632 22.5004 26.744 23.0658 26.968C23.6311 27.1813 24.0684 27.5173 24.3778 27.976C24.6871 28.424 24.8418 29 24.8418 29.704C24.8418 30.184 24.7618 30.5947 24.6018 30.936C24.4418 31.2667 24.2178 31.5387 23.9298 31.752C23.6418 31.9653 23.3058 32.1307 22.9218 32.248C22.5484 32.3547 22.1431 32.424 21.7058 32.456L21.5458 32.344C22.2284 32.3653 22.7991 32.4347 23.2578 32.552C23.7164 32.6587 24.0631 32.8613 24.2978 33.16C24.5324 33.4587 24.6498 33.9013 24.6498 34.488V37H22.7938V34.584C22.7938 34.1787 22.7244 33.864 22.5858 33.64C22.4471 33.416 22.2018 33.2613 21.8498 33.176C21.4978 33.08 21.0018 33.032 20.3618 33.032H16.6818V37H14.8418ZM16.6818 31.528H21.0498C21.6898 31.528 22.1751 31.3733 22.5058 31.064C22.8364 30.744 23.0017 30.3227 23.0017 29.8C23.0017 29.2987 22.8364 28.9147 22.5058 28.648C22.1751 28.3813 21.6898 28.248 21.0498 28.248H16.6818V31.528ZM32.7241 37.192C31.4975 37.192 30.4255 36.9733 29.5081 36.536C28.6015 36.0987 27.8975 35.48 27.3961 34.68C26.9055 33.88 26.6601 32.9253 26.6601 31.816C26.6601 30.7067 26.9055 29.752 27.3961 28.952C27.8975 28.1413 28.6015 27.5227 29.5081 27.096C30.4255 26.6587 31.4975 26.44 32.7241 26.44C33.9721 26.44 35.0441 26.6587 35.9401 27.096C36.8468 27.5227 37.5508 28.1413 38.0521 28.952C38.5535 29.752 38.8041 30.7067 38.8041 31.816C38.8041 32.9253 38.5535 33.88 38.0521 34.68C37.5508 35.48 36.8468 36.0987 35.9401 36.536C35.0441 36.9733 33.9721 37.192 32.7241 37.192ZM32.7241 35.56C33.5348 35.56 34.2495 35.4267 34.8681 35.16C35.4975 34.8827 35.9881 34.4667 36.3401 33.912C36.7028 33.3573 36.8841 32.6587 36.8841 31.816C36.8841 30.984 36.7028 30.2907 36.3401 29.736C35.9881 29.1813 35.4975 28.7653 34.8681 28.488C34.2495 28.2107 33.5348 28.072 32.7241 28.072C31.9241 28.072 31.2041 28.2107 30.5641 28.488C29.9348 28.7653 29.4388 29.1813 29.0761 29.736C28.7135 30.2907 28.5321 30.984 28.5321 31.816C28.5321 32.6587 28.7135 33.3573 29.0761 33.912C29.4388 34.4667 29.9348 34.8827 30.5641 35.16C31.2041 35.4267 31.9241 35.56 32.7241 35.56ZM43.5425 37L39.3825 26.632H41.4145L44.9505 35.752L44.3585 35.768L47.7345 26.632H49.8305L53.2065 35.768L52.6145 35.752L56.1505 26.632H58.1345L54.0225 37H51.8305L48.5025 27.896H49.0625L45.7345 37H43.5425ZM60.0051 26.632H61.8611V37H60.0051V26.632ZM74.3186 35.08L73.7426 35.304V26.632H75.5986V37H73.7426L65.9186 28.6L66.4786 28.376V37H64.6386V26.632H66.4786L74.3186 35.08ZM83.5318 37.192C82.6358 37.192 81.8304 37.0747 81.1158 36.84C80.4011 36.6053 79.7824 36.264 79.2598 35.816C78.7478 35.3573 78.3531 34.8027 78.0758 34.152C77.8091 33.4907 77.6758 32.7387 77.6758 31.896C77.6758 31.0533 77.8198 30.296 78.1078 29.624C78.4064 28.952 78.8224 28.3813 79.3558 27.912C79.8891 27.432 80.5238 27.0693 81.2598 26.824C82.0064 26.568 82.8331 26.44 83.7398 26.44C84.7744 26.44 85.6758 26.6 86.4438 26.92C87.2118 27.24 87.8198 27.688 88.2678 28.264C88.7264 28.8293 88.9878 29.5067 89.0518 30.296H87.3238C87.1851 29.8373 86.9611 29.4427 86.6518 29.112C86.3424 28.7813 85.9424 28.5253 85.4518 28.344C84.9718 28.1627 84.4011 28.072 83.7398 28.072C82.8758 28.072 82.1291 28.232 81.4998 28.552C80.8811 28.872 80.4011 29.32 80.0598 29.896C79.7291 30.472 79.5638 31.1387 79.5638 31.896C79.5638 32.6427 79.7078 33.2933 79.9958 33.848C80.2944 34.392 80.7424 34.8133 81.3398 35.112C81.9371 35.4107 82.6838 35.56 83.5798 35.56C84.2731 35.56 84.8811 35.4587 85.4038 35.256C85.9264 35.0533 86.3584 34.7707 86.6998 34.408C87.0518 34.0347 87.2971 33.6027 87.4358 33.112L88.2518 32.904C88.1024 34.28 87.6118 35.3413 86.7798 36.088C85.9478 36.824 84.8651 37.192 83.5318 37.192ZM87.8038 37C87.8038 36.6587 87.8198 36.2747 87.8518 35.848C87.8838 35.4107 87.9264 34.968 87.9798 34.52C88.0331 34.072 88.0811 33.6613 88.1238 33.288H83.8038V31.976H89.4518V37H87.8038ZM98.6206 37L94.4606 26.632H96.4926L100.029 35.752L99.4366 35.768L102.813 26.632H104.909L108.285 35.768L107.693 35.752L111.229 26.632H113.213L109.101 37H106.909L103.581 27.896H104.141L100.813 37H98.6206ZM115.083 26.632H116.939V37H115.083V26.632ZM118.757 26.632H128.805V28.216H118.757V26.632ZM122.869 28.024H124.709V37H122.869V28.024ZM131.989 31.016H139.669V32.6H131.989V31.016ZM139.397 26.632H141.253V37H139.397V26.632ZM130.357 26.632H132.197V37H130.357V26.632ZM147.451 37V26.632H152.795C154.075 26.632 155.056 26.872 155.739 27.352C156.422 27.8213 156.763 28.504 156.763 29.4C156.763 29.976 156.63 30.4347 156.363 30.776C156.096 31.1067 155.723 31.3573 155.243 31.528C154.763 31.688 154.192 31.7893 153.531 31.832L153.595 31.736C154.075 31.7467 154.528 31.7893 154.955 31.864C155.382 31.928 155.755 32.0453 156.075 32.216C156.406 32.3867 156.662 32.6267 156.843 32.936C157.035 33.2347 157.131 33.624 157.131 34.104C157.131 34.744 156.971 35.272 156.651 35.688C156.331 36.104 155.883 36.424 155.307 36.648C154.742 36.8613 154.086 36.9787 153.339 37H147.451ZM149.291 35.432H153.083C153.776 35.432 154.31 35.3147 154.683 35.08C155.067 34.8347 155.259 34.456 155.259 33.944C155.259 33.5493 155.142 33.2613 154.907 33.08C154.683 32.8987 154.384 32.7813 154.011 32.728C153.638 32.6747 153.248 32.648 152.843 32.648H149.291V35.432ZM149.291 31.112H152.683C153.376 31.112 153.91 30.9947 154.283 30.76C154.667 30.5147 154.859 30.136 154.859 29.624C154.859 29.112 154.667 28.7493 154.283 28.536C153.91 28.312 153.419 28.2 152.811 28.2H149.291V31.112ZM159.349 26.632H161.205V37H159.349V26.632ZM173.662 35.08L173.086 35.304V26.632H174.942V37H173.086L165.262 28.6L165.822 28.376V37H163.982V26.632H165.822L173.662 35.08ZM183.084 37.192C181.857 37.192 180.785 36.9733 179.868 36.536C178.961 36.0987 178.257 35.48 177.756 34.68C177.265 33.88 177.02 32.9253 177.02 31.816C177.02 30.7067 177.265 29.752 177.756 28.952C178.257 28.1413 178.961 27.5227 179.868 27.096C180.785 26.6587 181.857 26.44 183.084 26.44C184.332 26.44 185.404 26.6587 186.3 27.096C187.206 27.5227 187.91 28.1413 188.412 28.952C188.913 29.752 189.164 30.7067 189.164 31.816C189.164 32.9253 188.913 33.88 188.412 34.68C187.91 35.48 187.206 36.0987 186.3 36.536C185.404 36.9733 184.332 37.192 183.084 37.192ZM183.084 35.56C183.894 35.56 184.609 35.4267 185.227 35.16C185.857 34.8827 186.348 34.4667 186.7 33.912C187.062 33.3573 187.244 32.6587 187.244 31.816C187.244 30.984 187.062 30.2907 186.7 29.736C186.348 29.1813 185.857 28.7653 185.227 28.488C184.609 28.2107 183.894 28.072 183.084 28.072C182.284 28.072 181.564 28.2107 180.924 28.488C180.294 28.7653 179.798 29.1813 179.436 29.736C179.073 30.2907 178.892 30.984 178.892 31.816C178.892 32.6587 179.073 33.3573 179.436 33.912C179.798 34.4667 180.294 34.8827 180.924 35.16C181.564 35.4267 182.284 35.56 183.084 35.56Z" fill="black"/>
</svg>
